# xmcd CD database file
#
# Track frame offsets:
#	150
#	16183
#	34869
#	53165
#	70491
#	90228
#	109441
#	124479
#	141523
#	159159
#	173844
#
# Disc length: 2658 seconds
#
# Revision: 0
# Processed by: cddbd v1.5PL3 Copyright (c) Steve Scherf et al.
# Submitted via: cdripper 1.0.7
#
DISCID=950a600b
DTITLE=Andy Collins - Barron Delta Blue
DYEAR=1999
DGENRE=Blues
TTITLE0=Roadtrain
TTITLE1=Pascoe River
TTITLE2=Gulf Road
TTITLE3=Barron Delta Blue
TTITLE4=Swinging in the Trees
TTITLE5=Francis Gabriel Lam
TTITLE6=I Found Love 
TTITLE7=Sixteen Tons
TTITLE8=Long Lonesome Road
TTITLE9=Round the Bend
TTITLE10=International Blues
EXTD=YEAR: 1999
EXTT0=
EXTT1=
EXTT2=
EXTT3=
EXTT4=
EXTT5=
EXTT6=
EXTT7=
EXTT8=
EXTT9=
EXTT10=
PLAYORDER=
